<svg width="36" height="36" viewBox="0 0 36 36" fill="none" xmlns="http://www.w3.org/2000/svg">
<path d="M16.125 21C17.9889 21 19.5 22.5111 19.5 24.375V26.628L19.4881 26.7906C19.0221 29.9799 16.1573 31.5135 11.3502 31.5135C6.56042 31.5135 3.64995 29.9975 3.02169 26.8449L3 26.625V24.375C3 22.5111 4.51104 21 6.375 21H16.125ZM16.125 23.25H6.375C5.75368 23.25 5.25 23.7537 5.25 24.375V26.5056C5.66969 28.3062 7.57594 29.2635 11.3502 29.2635C15.1243 29.2635 16.9449 28.3165 17.25 26.5398V24.375C17.25 23.7537 16.7463 23.25 16.125 23.25ZM11.25 9C14.1495 9 16.5 11.3505 16.5 14.25C16.5 17.1495 14.1495 19.5 11.25 19.5C8.3505 19.5 6 17.1495 6 14.25C6 11.3505 8.3505 9 11.25 9ZM29.625 3C31.4889 3 33 4.51104 33 6.375V11.625C33 13.489 31.4889 15 29.625 15H27.4426L24.1929 18.2121C23.4562 18.9399 22.269 18.9329 21.5412 18.1962C21.1944 17.8452 21 17.3718 21 16.8789L20.9991 14.9793C19.312 14.7923 18 13.3619 18 11.625V6.375C18 4.51104 19.5111 3 21.375 3H29.625ZM11.25 11.25C9.59314 11.25 8.25 12.5931 8.25 14.25C8.25 15.9069 9.59314 17.25 11.25 17.25C12.9069 17.25 14.25 15.9069 14.25 14.25C14.25 12.5931 12.9069 11.25 11.25 11.25ZM29.625 5.25H21.375C20.7537 5.25 20.25 5.75368 20.25 6.375V11.625C20.25 12.2463 20.7537 12.75 21.375 12.75H23.2479L23.2495 15.9809L26.5183 12.75H29.625C30.2463 12.75 30.75 12.2463 30.75 11.625V6.375C30.75 5.75368 30.2463 5.25 29.625 5.25Z" fill="white"/>
</svg>
